<svg style="height:38px;width:auto;display:block" viewBox="0 0 333 95" fill="none" xmlns="http://www.w3.org/2000/svg">
<path fill-rule="evenodd" clip-rule="evenodd" d="M87.7968 48.8132C86.4453 35.347 84.4704 24.0335 74.0183 17.2985C67.6133 13.1712 60.3052 11.681 52.7482 11.9484C45.19 12.2158 38.0076 14.2187 31.913 18.7888C15.0842 31.4049 15.7507 64.0468 32.4588 76.4851C42.8714 84.2355 57.8511 85.0659 69.5401 79.9513C76.3381 76.9781 86.7175 74.6354 94.1328 75.1236C91.1724 79.6287 87.4272 83.4408 82.9674 86.5733C74.9004 92.2399 65.4807 94.6133 55.7111 94.9592C49.0264 95.1946 42.3528 94.4281 36.0179 92.2362C30.2966 90.2566 25.094 87.281 20.6539 83.1636C16.2139 79.0461 12.8629 74.0909 10.4741 68.5494C7.82905 62.413 6.58598 55.8412 6.34821 49.186C6.11044 42.5308 6.88289 35.8879 9.0832 29.5799C11.0704 23.8838 14.0604 18.7042 18.1961 14.2837C22.3319 9.86328 27.3091 6.5271 32.8752 4.14885C39.0388 1.51425 45.6397 0.277898 52.3244 0.0411761C59.0091 -0.195545 65.6815 0.572267 72.0176 2.76409C77.7389 4.74249 82.9415 7.71929 87.3816 11.8368C91.8204 15.953 95.1726 20.9107 97.5614 26.451C102.608 38.1582 100.506 52.5541 98.1392 64.4564C71.0837 57.7436 59.0609 73.7965 26.7892 62.4486C57.3632 65.4462 73.1744 47.399 87.7992 48.8119L87.7968 48.8132Z" fill="#3A4B70"/>
<path fill-rule="evenodd" clip-rule="evenodd" d="M4.05448 25.1929C4.05448 25.1929 4.51893 32.9103 14.9452 37.1737C17.7294 38.312 21.2246 39.2049 25.6104 39.6391C51.1321 42.1633 61.541 20.5603 86.9297 19.0222C95.641 18.4948 103.002 19.6257 105.981 24.7796C108.85 29.7446 110.029 40.0769 108.481 47.132C102.727 39.498 95.9613 37.4546 88.4893 38.361C72.497 40.3002 53.2683 55.7447 33.7957 58.7718C27.1208 59.8095 19.9076 59.6709 13.9202 57.6986C11.2 56.8032 8.73107 55.5276 6.68106 53.8141C-0.486593 47.8201 -2.67951 36.7518 4.05202 25.1917L4.05448 25.1929Z" fill="#209991"/>
<path fill-rule="evenodd" clip-rule="evenodd" d="M10.2496 26.5709C9.02256 25.1824 5.21328 23.7621 4.05522 25.191C4.05522 25.191 4.15378 28.9123 8.09118 32.7992C8.60245 30.6417 9.43897 28.629 10.2496 26.5721V26.5709Z" fill="#12615C"/>
<path fill-rule="evenodd" clip-rule="evenodd" d="M100.181 51.3072C102.487 50.5897 108.276 49.5287 108.483 47.1333C108.362 43.6573 100.679 40.2549 100.602 40.2782C100.785 44.1492 100.446 47.4829 100.181 51.3072Z" fill="#12615C"/>
<path fill-rule="evenodd" clip-rule="evenodd" d="M87.4743 45.787C96.4295 43.1806 100.451 47.5238 100.451 47.5238C100.569 45.8937 100.618 41.8216 100.568 40.2001C97.5913 38.039 91.0507 37.7581 86.4567 38.6755C86.6932 40.4135 87.4324 45.446 87.4743 45.787Z" fill="#263148"/>
<path d="M158.795 37.1645C157.213 31.5048 152.545 28.2365 146.374 28.2365C140.203 28.2365 135.535 31.5048 133.953 37.1645H158.795ZM133.557 44.7374C134.665 51.4333 139.649 55.3393 146.374 55.3393C150.804 55.3393 154.523 53.6653 156.817 50.5565H165.758C162.751 58.209 155.71 62.9122 146.374 62.9122C133.873 62.9122 125.408 54.3828 125.408 41.7879C125.408 29.1931 133.873 20.6637 146.374 20.6637C158.874 20.6637 167.34 29.1931 167.34 41.7879C167.34 42.8242 167.261 43.7808 167.182 44.7374H133.557Z" fill="currentColor"/>
<path d="M182.454 61.7165L166.552 21.8594H175.096L187.201 52.5493L199.069 21.8594H207.613L191.711 61.7165H182.454Z" fill="currentColor"/>
<path d="M210.11 9.50373C210.11 6.71374 212.088 4.8006 214.936 4.8006C217.784 4.8006 219.762 6.71374 219.762 9.50373C219.762 12.3734 217.784 14.3663 214.936 14.3663C212.088 14.3663 210.11 12.3734 210.11 9.50373ZM210.743 61.7165V21.8594H219.05V61.7165H210.743Z" fill="currentColor"/>
<path d="M233.257 41.7879V61.7165H224.95V21.8594H233.257V26.722C236.184 23.0551 240.536 20.6637 246.549 20.6637C257.388 20.6637 264.113 28.5554 264.113 39.1574V61.7165H255.805V38.9979C255.805 32.4614 252.483 28.2365 245.837 28.2365C238.558 28.2365 233.257 33.2585 233.257 41.7879Z" fill="currentColor"/>
<path d="M277.924 61.7165H269.617V21.8594H277.924V24.8088C281.247 21.0623 286.073 19.6274 292.244 21.2217L290.82 28.396C281.801 26.8814 277.924 32.1425 277.924 41.7879V61.7165Z" fill="currentColor"/>
<path d="M324.693 61.7165V57.2525C321.686 60.6802 317.177 62.9122 311.085 62.9122C299.138 62.9122 290.673 54.3828 290.673 41.7879C290.673 29.1931 299.138 20.6637 311.085 20.6637C317.177 20.6637 321.686 22.8957 324.693 26.3234V21.8594H333V61.7165H324.693ZM298.584 41.7879C298.584 50.3173 303.964 55.3393 311.638 55.3393C319.392 55.3393 324.693 50.3173 324.693 41.7879C324.693 33.2585 319.392 28.2365 311.638 28.2365C303.964 28.2365 298.584 33.2585 298.584 41.7879Z" fill="currentColor"/>
<path d="M219.307 76.6345V74.2444H231.761V76.6345H226.936V89.9841H224.131V76.6345H219.307Z" style="fill:var(--text3)"/>
<path d="M236.989 74.2444V89.9841H234.162V74.2444H236.989Z" style="fill:var(--text3)"/>
<path d="M253.413 79.555H250.562C250.481 79.0836 250.331 78.666 250.112 78.3023C249.894 77.9334 249.622 77.6208 249.297 77.3646C248.971 77.1085 248.601 76.9163 248.184 76.7882C247.772 76.655 247.328 76.5884 246.85 76.5884C246.002 76.5884 245.249 76.8036 244.594 77.234C243.939 77.6593 243.425 78.2843 243.054 79.1092C242.683 79.929 242.498 80.9307 242.498 82.1143C242.498 83.3183 242.683 84.3328 243.054 85.1577C243.43 85.9775 243.944 86.5974 244.594 87.0176C245.249 87.4326 245.999 87.6401 246.842 87.6401C247.31 87.6401 247.747 87.5786 248.153 87.4556C248.565 87.3275 248.933 87.1405 249.259 86.8946C249.589 86.6487 249.866 86.3464 250.089 85.9877C250.318 85.6291 250.476 85.2192 250.562 84.758L253.413 84.7734C253.306 85.5215 253.075 86.2234 252.719 86.8792C252.368 87.5351 251.908 88.114 251.339 88.6161C250.77 89.1131 250.105 89.5025 249.342 89.7843C248.58 90.061 247.734 90.1993 246.804 90.1993C245.432 90.1993 244.208 89.8791 243.131 89.2387C242.053 88.5982 241.205 87.6734 240.585 86.4642C239.965 85.255 239.655 83.805 239.655 82.1143C239.655 80.4183 239.968 78.9683 240.593 77.7643C241.218 76.5551 242.069 75.6303 243.146 74.9898C244.223 74.3494 245.443 74.0292 246.804 74.0292C247.673 74.0292 248.481 74.1521 249.228 74.3981C249.975 74.644 250.641 75.0052 251.225 75.4817C251.809 75.9531 252.29 76.5321 252.666 77.2186C253.047 77.9001 253.296 78.6789 253.413 79.555Z" style="fill:var(--text3)"/>
<path d="M256.002 89.9841V74.2444H258.83V81.4764H259.02L265.11 74.2444H268.563L262.526 81.3073L268.616 89.9841H265.217L260.56 83.2363L258.83 85.296V89.9841H256.002Z" style="fill:var(--text3)"/>
<path d="M270.527 89.9841V74.2444H280.68V76.6345H273.355V80.9076H280.154V83.2978H273.355V87.594H280.741V89.9841H270.527Z" style="fill:var(--text3)"/>
<path d="M282.879 76.6345V74.2444H295.333V76.6345H290.508V89.9841H287.703V76.6345H282.879Z" style="fill:var(--text3)"/>
<path d="M300.561 74.2444V89.9841H297.734V74.2444H300.561Z" style="fill:var(--text3)"/>
<path d="M316.451 74.2444V89.9841H313.936L306.581 79.263H306.451V89.9841H303.623V74.2444H306.154L313.501 84.9732H313.639V74.2444H316.451Z" style="fill:var(--text3)"/>
<path d="M329.989 79.2706C329.862 78.8556 329.687 78.4842 329.463 78.1562C329.245 77.8232 328.981 77.5389 328.671 77.3032C328.366 77.0675 328.015 76.8907 327.619 76.7729C327.223 76.6499 326.791 76.5884 326.323 76.5884C325.485 76.5884 324.738 76.801 324.082 77.2263C323.427 77.6516 322.911 78.2767 322.535 79.1016C322.164 79.9213 321.979 80.9204 321.979 82.0989C321.979 83.2876 322.164 84.2944 322.535 85.1193C322.906 85.9442 323.422 86.5718 324.082 87.0022C324.743 87.4275 325.51 87.6401 326.384 87.6401C327.177 87.6401 327.863 87.4864 328.442 87.179C329.026 86.8715 329.476 86.436 329.791 85.8724C330.106 85.3037 330.264 84.6376 330.264 83.8742L330.904 83.9741H326.666V81.7453H333V83.636C333 84.9835 332.715 86.1491 332.146 87.1329C331.577 88.1166 330.795 88.8749 329.799 89.4077C328.803 89.9355 327.66 90.1993 326.369 90.1993C324.931 90.1993 323.668 89.874 322.581 89.2233C321.499 88.5675 320.653 87.6375 320.043 86.4335C319.438 85.2243 319.136 83.7897 319.136 82.1296C319.136 80.859 319.314 79.7241 319.669 78.725C320.03 77.7259 320.533 76.8779 321.178 76.1811C321.824 75.4792 322.581 74.9463 323.45 74.5825C324.319 74.2136 325.264 74.0292 326.285 74.0292C327.149 74.0292 327.954 74.1572 328.701 74.4134C329.448 74.6645 330.111 75.0232 330.691 75.4894C331.275 75.9557 331.755 76.509 332.131 77.1495C332.507 77.7899 332.754 78.497 332.87 79.2706H329.989Z" style="fill:var(--text3)"/>
</svg>
